<svg xmlns="http://www.w3.org/2000/svg" width="1200" height="280" viewBox="0 0 1200 280"><defs><linearGradient id="bg" x1="0" y1="0" x2="1" y2="1"><stop offset="0" stop-color="#020913"/><stop offset=".55" stop-color="#061927"/><stop offset="1" stop-color="#020b13"/></linearGradient><linearGradient id="c" x1="0" y1="0" x2="1" y2="0"><stop offset="0" stop-color="#087dff"/><stop offset=".5" stop-color="#35efff"/><stop offset="1" stop-color="#00a7ff"/></linearGradient><filter id="g" x="-100%" y="-100%" width="300%" height="300%"><feGaussianBlur stdDeviation="6" result="b"/><feMerge><feMergeNode in="b"/><feMergeNode in="SourceGraphic"/></feMerge></filter><pattern id="grid" width="30" height="30" patternUnits="userSpaceOnUse"><path d="M30 0H0V30" fill="none" stroke="#12344b" opacity=".25"/></pattern></defs><rect width="1200" height="280" rx="24" fill="url(#bg)"/><rect width="1200" height="280" rx="24" fill="url(#grid)"/><rect x="1" y="1" width="1198" height="278" rx="23" fill="none" stroke="#173a50"/><rect x="55" y="67" width="7" height="145" rx="4" fill="url(#c)" filter="url(#g)"/><text x="89" y="91" fill="#59eaff" font-family="ui-monospace,Consolas,monospace" font-size="13" letter-spacing="3">LEVIATHAN // PLAYER SOFTWARE</text><text x="86" y="151" fill="#f3fbff" font-family="Segoe UI,Arial,sans-serif" font-size="52" font-weight="800">Leviathan Launcher</text><text x="89" y="187" fill="#a7bfcd" font-family="Segoe UI,Arial,sans-serif" font-size="19">Minecraft: Java Edition launcher and connected player platform</text><text x="89" y="221" fill="#668ba0" font-family="ui-monospace,Consolas,monospace" font-size="11">AUTH • PROFILES • INSTANCES • VERSIONS • UPDATES • CUSTOMIZATION • CAST</text><g transform="translate(1010 140)"><circle r="92" fill="none" stroke="#16b8db" stroke-width="1.5" stroke-dasharray="6 10" opacity=".5"><animateTransform attributeName="transform" type="rotate" from="0" to="360" dur="18s" repeatCount="indefinite"/></circle><circle r="62" fill="none" stroke="#5aefff" stroke-width="1" stroke-dasharray="3 8"><animateTransform attributeName="transform" type="rotate" from="360" to="0" dur="11s" repeatCount="indefinite"/></circle><path id="p" d="M-42 14 C-15 -35 41 -35 57 6 C70 41 24 59 -6 37 C-28 21 -17 -4 4 -8 C24 -12 35 7 27 21" fill="none" stroke="url(#c)" stroke-width="7" stroke-linecap="round" filter="url(#g)"/><circle r="4" fill="#8af7ff"><animateMotion dur="4s" repeatCount="indefinite"><mpath href="#p"/></animateMotion></circle></g><circle cx="1110" cy="34" r="4" fill="#3ee39b"><animate attributeName="opacity" values=".35;1;.35" dur="1.5s" repeatCount="indefinite"/></circle><text x="1123" y="38" fill="#7c9dae" font-family="ui-monospace,Consolas,monospace" font-size="10">PRIVATE DEVELOPMENT</text></svg>