<svg xmlns="http://www.w3.org/2000/svg" width="1200" height="310" viewBox="0 0 1200 310"><defs><linearGradient id="b" x1="0" x2="1"><stop stop-color="#010811"/><stop offset=".55" stop-color="#061827"/><stop offset="1" stop-color="#020b14"/></linearGradient><linearGradient id="c" x1="0" x2="1"><stop stop-color="#087fff"/><stop offset=".5" stop-color="#35efff"/><stop offset="1" stop-color="#00a7ff"/></linearGradient><filter id="g" x="-100%" y="-100%" width="300%" height="300%"><feGaussianBlur stdDeviation="5" result="x"/><feMerge><feMergeNode in="x"/><feMergeNode in="SourceGraphic"/></feMerge></filter><pattern id="p" width="30" height="30" patternUnits="userSpaceOnUse"><path d="M30 0H0V30" fill="none" stroke="#12344b" opacity=".25"/></pattern></defs><rect width="1200" height="310" rx="25" fill="url(#b)"/><rect width="1200" height="310" rx="25" fill="url(#p)"/><rect x="3" y="3" width="1194" height="304" rx="22" fill="none" stroke="#173b50"/><rect x="3" y="3" width="1194" height="304" rx="22" fill="none" stroke="url(#c)" stroke-width="2.5" stroke-dasharray="420 1480" filter="url(#g)" opacity=".75"><animate attributeName="stroke-dashoffset" values="0;-1900" dur="9s" repeatCount="indefinite"/></rect><text x="48" y="30" fill="#557d91" font-family="ui-monospace,Consolas,monospace" font-size="9" letter-spacing="1.2">LEVIATHAN PUBLIC SURFACE / PLAYER SOFTWARE</text><rect x="1087" y="22" width="8" height="8" rx="2" fill="#46e5a0"><animate attributeName="opacity" values=".3;1;.3" dur="1.5s" repeatCount="indefinite"/></rect><text x="1104" y="30" fill="#7294a6" font-family="ui-monospace,Consolas,monospace" font-size="9">PRIVATE DEVELOPMENT</text><line x1="42" y1="46" x2="1158" y2="46" stroke="#16384c"/><rect x="56" y="75" width="7" height="166" rx="4" fill="url(#c)" filter="url(#g)"/><text x="92" y="101" fill="#58eaff" font-family="ui-monospace,Consolas,monospace" font-size="13" font-weight="700" letter-spacing="3.4">LEVIATHAN // LAUNCHER</text><text x="89" y="159" fill="#f4fbff" font-family="Segoe UI,Arial,sans-serif" font-size="52" font-weight="800">Leviathan Launcher</text><text x="92" y="195" fill="#a9c0ce" font-family="Segoe UI,Arial,sans-serif" font-size="18">Minecraft: Java Edition launcher and connected player platform.</text><text x="92" y="230" fill="#668b9f" font-family="ui-monospace,Consolas,monospace" font-size="10.5">AUTH • PROFILES • INSTANCES • VERSIONS • UPDATES • CUSTOMIZATION • CAST</text><g transform="translate(780 70)" font-family="ui-monospace,Consolas,monospace" font-size="8"><path d="M20 48 H120 L145 72 H236 L260 45 H380" fill="none" stroke="#1b6c88" stroke-width="2"/><path d="M20 108 H96 L126 136 H215 L247 107 H380" fill="none" stroke="#22bad4" stroke-width="2"/><path d="M20 168 H137 L165 145 H287 L315 168 H380" fill="none" stroke="#1b6c88" stroke-width="2"/><path id="route" d="M30 48 H118 L146 76 H229 L261 108 H334 L368 168" fill="none" stroke="url(#c)" stroke-width="4" stroke-linecap="round" stroke-linejoin="round" filter="url(#g)"/><rect width="8" height="8" rx="2" fill="#9ff8ff"><animateMotion dur="4.5s" repeatCount="indefinite"><mpath href="#route"/></animateMotion></rect><g fill="#43e49a"><rect x="16" y="44" width="8" height="8" rx="2"/><rect x="372" y="164" width="8" height="8" rx="2"/></g><text x="22" y="34" fill="#7397aa">AUTH</text><text x="140" y="66" fill="#7397aa">PROFILE</text><text x="250" y="34" fill="#7397aa">INSTANCE</text><text x="20" y="198" fill="#7397aa">LIVE LAUNCH PIPELINE / VERSION + DEVICE ROUTING</text></g><rect x="760" y="70" width="410" height="1" fill="#4eeeff" opacity=".14"><animate attributeName="y" values="70;254;70" dur="6.5s" repeatCount="indefinite"/></rect><line x1="42" y1="268" x2="1158" y2="268" stroke="#16384c"/><text x="48" y="291" fill="#597f93" font-family="ui-monospace,Consolas,monospace" font-size="9">PRIVATE DEVELOPMENT • PUBLIC DOCUMENTATION • PROPRIETARY SOURCE • RELEASE GATE CLOSED</text></svg>